# xmcd
#
# Track frame offsets:
# 150
# 29830
# 52595
# 76260
# 91530
# 114920
# 135272
# 151757
# 167527
# 187742
# 206267
# 223207
#
# Disc length: 3254 seconds
#
#
# Revision: 0
# Processed by: cddbd v1.4PL0 Copyright (c) Steve Scherf et al.
# Submitted via: FreeRIP 2.52 
#
DISCID=820cb40c
DTITLE=Kauzay - Love story
DYEAR=1900
DGENRE=Latin
TTITLE0=Basija
TTITLE1=Greatest love of all
TTITLE2=Wind of change
TTITLE3=Love story
TTITLE4=All by myself
TTITLE5=Danny boy
TTITLE6=Feelings
TTITLE7=The last unicorn
TTITLE8=Can you feel the love tonight
TTITLE9=Everything i do
TTITLE10=I will come to you
TTITLE11=Nights in white satin
EXTD=
EXTT0=
EXTT1=
EXTT2=
EXTT3=
EXTT4=
EXTT5=
EXTT6=
EXTT7=
EXTT8=
EXTT9=
EXTT10=
EXTT11=
PLAYORDER=
